<?xml version="1.0" encoding="utf-8"?>
<!-- Generator: Adobe Illustrator 25.1.0, SVG Export Plug-In . SVG Version: 6.00 Build 0)  -->
<svg version="1.1" id="Layer_1" xmlns="http://www.w3.org/2000/svg" xmlns:xlink="http://www.w3.org/1999/xlink" x="0px" y="0px"
	 viewBox="0 0 45 44.3" style="enable-background:new 0 0 45 44.3;" xml:space="preserve">
<style type="text/css">
	.st0{fill:#F7C7C6;}
	.st1{fill:#F4DCC2;}
	.st2{clip-path:url(#SVGID_2_);}
	.st3{fill:#F2F2F2;}
	.st4{fill:#DBDBDB;}
	.st5{fill:#E7534F;}
</style>
<g transform="translate(-5.886 775.297)">
	<path class="st0" d="M17.9-762.2h21c6.6,0,12,5.4,12,12v7.2c0,6.6-5.4,12-12,12h-21c-6.6,0-12-5.4-12-12v-7.2
		C5.9-756.9,11.3-762.2,17.9-762.2z"/>
	<g transform="translate(4.999)">
		<path class="st1" d="M14.1-775.3h18.7c4.5,0,8.2,3.7,8.2,8.2v18c0,4.5-3.7,8.2-8.2,8.2H14.1c-4.5,0-8.2-3.7-8.2-8.2v-18
			C5.9-771.6,9.5-775.3,14.1-775.3z"/>
		<g>
			<defs>
				<path id="SVGID_1_" d="M9.9-775.3h27c2.2,0,4,1.8,4,4v26.3c0,2.2-1.8,4-4,4h-27c-2.2,0-4-1.8-4-4v-26.3
					C5.9-773.5,7.7-775.3,9.9-775.3z"/>
			</defs>
			<clipPath id="SVGID_2_">
				<use xlink:href="#SVGID_1_"  style="overflow:visible;"/>
			</clipPath>
			<g class="st2">
				<path class="st3" d="M14.1-775.3h18.7c4.5,0,8.2,3.7,8.2,8.2v18c0,4.5-3.7,8.2-8.2,8.2H14.1c-4.5,0-8.2-3.7-8.2-8.2v-18
					C5.9-771.6,9.5-775.3,14.1-775.3z"/>
				<g transform="translate(6.602 6.138)">
					<path class="st4" d="M7.1-772.8h8c0.7,0,1.2-0.6,1.2-1.2c0-0.7-0.6-1.2-1.2-1.2h-8c-0.7,0-1.2,0.6-1.2,1.2
						C5.9-773.4,6.4-772.8,7.1-772.8z"/>
					<path class="st4" d="M7.1-767.4h19.8c0.7,0,1.2-0.6,1.2-1.2c0-0.7-0.6-1.2-1.2-1.2H7.1c-0.7,0-1.2,0.6-1.2,1.2
						C5.9-767.9,6.4-767.4,7.1-767.4z"/>
					<path class="st4" d="M26.9-764.4H7.1c-0.7,0-1.2,0.6-1.2,1.2c0,0.7,0.6,1.2,1.2,1.2h19.8c0.7,0,1.2-0.6,1.2-1.2
						C28.1-763.9,27.6-764.4,26.9-764.4L26.9-764.4z"/>
				</g>
			</g>
		</g>
	</g>
	<path class="st5" d="M28.4-746.4L50.9-759v24.7c0,1.8-1.5,3.3-3.3,3.3H9.2c-1.8,0-3.3-1.5-3.3-3.3V-759L28.4-746.4z"/>
</g>
</svg>
