<?xml version="1.0" encoding="utf-8"?>
<!-- Generator: Adobe Illustrator 27.0.1, SVG Export Plug-In . SVG Version: 6.00 Build 0)  -->
<svg version="1.1" id="Layer_1" xmlns="http://www.w3.org/2000/svg" xmlns:xlink="http://www.w3.org/1999/xlink" x="0px" y="0px"
	 viewBox="0 0 32 32" style="enable-background:new 0 0 32 32;" xml:space="preserve">
<style type="text/css">
	.st0{clip-path:url(#SVGID_00000088851905320938125910000012482919514312232605_);}
	.st1{fill:#FFFFFF;}
</style>
<g>
	<defs>
		<rect id="SVGID_1_" width="32" height="32"/>
	</defs>
	<clipPath id="SVGID_00000142162644399090608180000015225361370927770811_">
		<use xlink:href="#SVGID_1_"  style="overflow:visible;"/>
	</clipPath>
	<g style="clip-path:url(#SVGID_00000142162644399090608180000015225361370927770811_);">
		<path class="st1" d="M16,32C7.2,32,0,24.8,0,16C0,7.2,7.2,0,16,0c8.8,0,16,7.2,16,16C32,24.8,24.8,32,16,32z M16,1.3
			C7.9,1.3,1.3,7.9,1.3,16c0,8.1,6.6,14.7,14.7,14.7c8.1,0,14.7-6.6,14.7-14.7C30.7,7.9,24.1,1.3,16,1.3z"/>
		<path class="st1" d="M13.1,12.4l2.1-2.3v8.6h1.6v-8.6l2.1,2.3l1.1-1.3l-4-4.4l-4,4.4L13.1,12.4z"/>
		<path class="st1" d="M22.2,14.7v6.2H9.8v-6.2H8v8h16v-8H22.2z"/>
	</g>
</g>
</svg>
