<svg width="32" height="28" viewBox="0 0 32 28" fill="none" xmlns="http://www.w3.org/2000/svg">
<path d="M12.0816 27.2725H0V15.6562C0 13.5632 0.217687 11.6097 0.653061 9.79572C1.161 7.912 1.88662 6.27246 2.82993 4.87712C3.84581 3.48176 5.11565 2.36548 6.63946 1.52828C8.16327 0.691067 9.94104 0.272461 11.9728 0.272461V5.50502C10.7392 5.50502 9.72336 5.81897 8.92517 6.44688C8.12698 7.00502 7.47392 7.77246 6.96599 8.74921C6.45805 9.72595 6.09524 10.8422 5.87755 12.098C5.73243 13.2841 5.65986 14.4701 5.65986 15.6562H12.0816V27.2725ZM32 27.2725H19.9184V15.6562C19.9184 13.5632 20.1361 11.6097 20.5714 9.79572C21.0794 7.912 21.805 6.27246 22.7483 4.87712C23.7642 3.48176 25.034 2.36548 26.5578 1.52828C28.0816 0.691067 29.8594 0.272461 31.8912 0.272461V5.50502C30.6576 5.50502 29.6417 5.81897 28.8435 6.44688C28.0454 7.00502 27.3923 7.77246 26.8844 8.74921C26.3764 9.72595 26.0136 10.8422 25.7959 12.098C25.6508 13.2841 25.5782 14.4701 25.5782 15.6562H32V27.2725Z" fill="#E7534F"/>
</svg>
